<svg width="20" height="20" viewBox="0 0 24 24" fill="none" xmlns="http://www.w3.org/2000/svg">
<path d="M2 13V13.5V13.5C2 15.8271 2 16.9906 2.31842 17.9286C2.91801 19.695 4.30502 21.082 6.07136 21.6816C7.0094 22 8.17293 22 10.5 22H12.4C15.7603 22 17.4405 22 18.7239 21.346C19.8529 20.7708 20.7708 19.8529 21.346 18.7239C22 17.4405 22 15.7603 22 12.4V11.6C22 8.23969 22 6.55953 21.346 5.27606C20.7708 4.14708 19.8529 3.2292 18.7239 2.65396C17.4405 2 15.7603 2 12.4 2H6.82963C4.1623 2 2 4.1623 2 6.82963V6.82963C2 7.49646 2.54057 8.03704 3.20741 8.03704H17M8 1V4M16 1V4M17 17H15" stroke="currentColor" stroke-width="1.5" stroke-linecap="round" stroke-linejoin="round"/>
</svg>
